<svg width="20" height="20" viewBox="0 0 20 20" fill="none" xmlns="http://www.w3.org/2000/svg">
<path d="M18.3327 8.33333C18.2954 9.91704 17.9014 11.4719 17.18 12.8823C16.4586 14.2926 15.4284 15.5221 14.166 16.4792V19.1667C14.166 19.3877 14.0782 19.5996 13.9219 19.7559C13.7657 19.9122 13.5537 20 13.3327 20C13.1117 20 12.8997 19.9122 12.7434 19.7559C12.5871 19.5996 12.4993 19.3877 12.4993 19.1667V1.66667C12.4919 1.35355 12.5774 1.04526 12.7452 0.780774C12.913 0.516293 13.1554 0.307509 13.4418 0.180833C13.7709 0.046971 14.1318 0.0118585 14.4805 0.0797868C14.8291 0.147715 15.1505 0.315742 15.4052 0.563333C17.338 2.68413 18.3855 5.46441 18.3327 8.33333ZM9.16602 0C8.945 0 8.73304 0.0877974 8.57676 0.244078C8.42048 0.400358 8.33268 0.61232 8.33268 0.833333V5.83333C8.33055 6.34855 8.16928 6.85052 7.87094 7.27058C7.57261 7.69064 7.15177 8.00826 6.66602 8.18V0.833333C6.66602 0.61232 6.57822 0.400358 6.42194 0.244078C6.26566 0.0877974 6.0537 0 5.83268 0C5.61167 0 5.39971 0.0877974 5.24343 0.244078C5.08715 0.400358 4.99935 0.61232 4.99935 0.833333V8.18C4.51359 8.00826 4.09276 7.69064 3.79442 7.27058C3.49609 6.85052 3.33482 6.34855 3.33268 5.83333V0.833333C3.33268 0.61232 3.24488 0.400358 3.0886 0.244078C2.93232 0.0877974 2.72036 0 2.49935 0C2.27834 0 2.06637 0.0877974 1.91009 0.244078C1.75381 0.400358 1.66602 0.61232 1.66602 0.833333V5.83333C1.66723 6.7935 1.99942 7.7239 2.60661 8.46771C3.2138 9.21152 4.05886 9.72325 4.99935 9.91667V19.1667C4.99935 19.3877 5.08715 19.5996 5.24343 19.7559C5.39971 19.9122 5.61167 20 5.83268 20C6.0537 20 6.26566 19.9122 6.42194 19.7559C6.57822 19.5996 6.66602 19.3877 6.66602 19.1667V9.91667C7.6065 9.72325 8.45156 9.21152 9.05875 8.46771C9.66594 7.7239 9.99814 6.7935 9.99935 5.83333V0.833333C9.99935 0.61232 9.91155 0.400358 9.75527 0.244078C9.59899 0.0877974 9.38703 0 9.16602 0Z" fill="white"/>
</svg>
